 <svg  version="1.0" xmlns="http://www.w3.org/2000/svg"  width="300.000000pt" height="300.000000pt" viewBox="0 0 300.000000 300.000000"  preserveAspectRatio="xMidYMid meet">  <g transform="translate(0.000000,300.000000) scale(0.100000,-0.100000)" fill="#ffffff" stroke="none"> <path d="M2035 2896 c44 -18 94 -40 112 -49 18 -9 36 -17 40 -17 12 1 -65 40 -141 72 -38 15 -74 28 -80 28 -6 -1 25 -16 69 -34z"/> <path d="M920 2887 c-76 -34 -120 -56 -109 -57 3 0 39 15 80 33 41 19 85 38 99 45 14 6 21 11 15 11 -5 1 -44 -14 -85 -32z"/> <path d="M627 2724 c-42 -30 -77 -58 -77 -60 0 -7 17 4 85 54 68 51 81 62 74 62 -2 0 -39 -25 -82 -56z"/> <path d="M435 2558 l-90 -93 93 90 c50 49 92 91 92 92 0 8 -12 -4 -95 -89z"/> <path d="M2555 2560 c49 -49 92 -90 95 -90 2 0 -36 41 -85 90 -49 50 -92 90 -95 90 -2 0 36 -40 85 -90z"/> <path d="M1338 2385 c-120 -33 -330 -141 -496 -256 -69 -47 -222 -186 -280 -254 -86 -101 -98 -152 -108 -490 -6 -216 -6 -222 19 -297 l24 -76 -29 -22 c-17 -12 -38 -41 -49 -63 -20 -44 -26 -147 -9 -147 6 0 10 26 10 58 0 47 6 67 30 105 35 56 57 61 62 14 2 -17 7 -31 11 -29 4 2 19 -4 33 -13 23 -15 25 -15 33 7 5 13 12 38 16 56 3 17 12 32 19 32 24 0 80 -45 107 -85 l27 -40 -34 -33 c-35 -34 -57 -94 -53 -140 5 -42 -8 -52 -62 -52 -59 0 -105 18 -138 54 -21 22 -24 35 -22 78 3 57 21 101 48 117 17 10 17 10 1 11 -25 0 -58 -70 -58 -124 0 -24 -5 -46 -11 -48 -17 -6 30 -57 74 -81 33 -17 58 -21 113 -21 l70 1 20 -36 c24 -45 106 -103 181 -126 119 -39 313 -18 391 42 28 21 38 24 57 15 65 -30 300 -39 396 -16 22 5 28 1 39 -26 15 -37 76 -81 143 -104 167 -57 396 48 476 219 35 75 38 184 6 265 -4 12 8 19 55 29 78 17 162 68 224 134 93 99 107 173 56 297 -56 135 -148 230 -291 298 -63 30 -79 43 -88 70 -7 17 -15 32 -19 32 -4 0 -6 24 -4 53 3 45 0 56 -20 77 -13 14 -50 65 -83 113 -59 90 -60 90 -211 181 -27 16 -78 48 -114 71 -90 59 -127 76 -272 129 -73 26 -144 46 -165 45 -21 0 -77 -11 -125 -24z m280 -35 c62 -22 133 -51 160 -64 74 -38 265 -155 287 -176 19 -20 18 -20 -95 -20 -63 0 -133 -4 -155 -9 -22 -6 -41 -9 -42 -7 -8 7 80 47 93 42 9 -3 12 -1 9 4 -12 19 -40 10 -118 -36 l-78 -45 -24 25 c-56 61 -186 27 -218 -57 -3 -9 13 4 37 28 40 43 45 45 98 45 44 0 59 -4 77 -23 26 -29 19 -37 -50 -60 -68 -23 -277 -78 -334 -89 -68 -12 -104 -27 -115 -49 -17 -31 -11 -35 13 -7 14 17 37 30 61 34 49 9 42 -4 -19 -36 -75 -40 -84 -46 -110 -70 -27 -25 -32 -21 -14 11 9 19 9 19 -10 10 -16 -9 -19 -18 -15 -39 4 -21 -1 -33 -21 -52 l-27 -25 7 25 c4 14 12 31 18 38 5 7 8 15 5 17 -8 8 -24 -16 -37 -54 -20 -61 -192 -353 -254 -434 -71 -91 -116 -173 -148 -269 -35 -104 -63 -89 -103 55 -30 108 -29 94 -23 367 6 249 18 318 67 390 76 111 269 278 430 371 221 129 254 144 380 179 101 28 143 25 268 -20z m543 -307 c14 -16 45 -59 70 -98 24 -38 53 -77 64 -87 16 -13 20 -28 20 -71 0 -29 5 -60 12 -68 6 -8 15 -27 19 -44 l7 -30 -30 26 c-29 24 -43 27 -192 39 -89 7 -181 10 -205 7 -82 -12 -463 -122 -481 -139 -7 -7 -2 -8 15 -3 14 4 -15 -20 -64 -54 -225 -155 -459 -401 -527 -555 -23 -53 -45 -59 -108 -27 -51 27 -66 47 -62 88 1 20 -5 50 -15 68 -17 32 -17 33 6 70 40 65 192 265 166 218 -4 -7 -5 -13 -2 -13 3 0 10 10 17 21 7 15 8 19 0 15 -7 -5 -9 -1 -5 8 3 9 10 14 14 11 5 -3 8 3 8 12 -1 26 77 161 107 185 14 10 25 24 25 30 0 6 -6 6 -15 -2 -9 -8 -15 -8 -15 -2 0 6 15 20 34 31 19 12 46 38 61 59 31 41 54 62 68 62 5 0 3 -8 -4 -17 -13 -16 -12 -17 4 -4 9 8 15 16 13 19 -3 3 36 29 88 58 72 41 123 62 227 89 78 21 160 51 196 71 76 42 130 51 314 53 l145 1 25 -27z m-3 -355 c117 -10 135 -14 156 -35 31 -30 53 -113 67 -246 19 -183 -17 -416 -63 -401 -14 4 -8 -9 20 -50 46 -66 67 -149 59 -236 -10 -118 -87 -219 -212 -281 -65 -32 -76 -34 -170 -34 -83 0 -107 4 -140 22 -124 66 -144 192 -47 296 14 15 21 27 14 27 -37 0 -98 -115 -90 -169 4 -30 3 -31 -51 -42 -71 -15 -292 -5 -351 15 -43 15 -44 14 -84 -14 -88 -63 -276 -77 -400 -30 -62 24 -138 85 -162 131 -20 40 -17 116 6 163 13 27 36 52 67 71 43 27 58 30 133 32 47 1 86 2 88 2 2 1 -12 27 -45 85 -9 15 -13 17 -13 5 0 -8 4 -19 9 -25 5 -5 12 -19 15 -31 7 -21 4 -22 -41 -19 -26 2 -49 4 -51 5 -8 4 49 96 113 179 153 203 446 448 595 499 33 11 260 75 305 86 37 9 139 7 273 -5z m316 -88 c56 -27 173 -140 210 -202 13 -24 34 -71 46 -106 17 -53 19 -69 10 -105 -32 -121 -178 -245 -312 -263 -42 -6 -44 -5 -61 30 -16 35 -16 38 3 77 21 41 26 41 64 10 11 -9 6 2 -11 24 -30 39 -30 41 -22 115 4 41 8 117 8 169 1 75 5 98 19 114 16 19 16 20 -6 8 -27 -14 -24 -21 -59 152 l-5 28 33 -14 c19 -8 56 -25 83 -37z m-1799 -525 c3 -14 7 -36 10 -50 6 -29 7 -29 -33 -12 l-30 12 15 38 c18 43 30 47 38 12z"/> <path d="M1468 2354 c-4 -3 -28 -12 -55 -20 -45 -13 -45 -13 -8 -8 38 5 102 33 79 34 -6 0 -13 -3 -16 -6z"/> <path d="M1800 2213 c0 -13 66 -52 97 -58 l28 -5 -30 11 c-16 6 -45 22 -62 36 -18 13 -33 20 -33 16z"/> <path d="M1165 2178 c-11 -6 -35 -26 -52 -44 -38 -38 -43 -79 -14 -115 16 -20 28 -24 73 -24 113 2 178 108 106 175 -24 22 -80 26 -113 8z m119 -41 c24 -50 13 -76 -48 -112 -39 -23 -51 -25 -88 -18 -39 8 -44 12 -52 46 -8 32 -7 40 15 63 39 43 81 65 119 62 30 -3 38 -9 54 -41z"/> <path d="M841 2052 c-3 -61 -47 -100 -136 -122 -30 -8 -30 -8 -3 -9 14 -1 46 7 70 18 49 21 83 71 75 111 -4 24 -4 24 -6 2z"/> <path d="M940 1819 c-47 -19 -80 -60 -80 -99 0 -42 31 -104 54 -108 12 -3 10 3 -8 21 -54 54 -39 139 32 173 26 12 40 13 64 5 38 -13 45 -14 33 -2 -17 15 -69 21 -95 10z"/> <path d="M564 1690 c-10 -5 -30 -20 -44 -36 l-25 -27 36 26 c87 65 168 2 119 -92 -20 -40 -41 -55 -87 -65 -22 -5 -35 -2 -47 9 -9 9 -16 12 -16 6 0 -13 33 -31 59 -31 53 0 121 72 121 129 0 58 -62 101 -116 81z"/> <path d="M694 1397 c-8 -5 -26 -27 -41 -50 -29 -47 -33 -111 -8 -136 9 -10 15 -11 15 -4 0 7 -4 15 -10 18 -14 9 -12 60 4 98 20 48 48 67 99 70 25 1 43 5 40 10 -6 9 -79 5 -99 -6z"/> <path d="M480 1230 c0 -6 14 -29 31 -50 28 -35 31 -44 26 -86 -3 -29 -1 -41 4 -33 5 8 9 24 9 36 0 12 4 23 9 25 5 2 -10 29 -35 61 -24 32 -44 54 -44 47z"/> <path d="M831 1328 c-12 -40 -17 -100 -9 -113 3 -6 3 -19 1 -30 -9 -41 -10 -74 -2 -87 6 -9 8 -7 9 7 0 11 2 65 3 120 2 55 7 108 11 118 5 9 6 17 3 17 -3 0 -10 -15 -16 -32z"/> <path d="M1938 1489 c-38 -28 -235 -129 -253 -129 -8 0 -15 -4 -15 -10 0 -6 9 -6 26 0 14 6 27 10 29 10 1 0 6 -17 10 -37 22 -122 106 -282 166 -317 30 -18 32 -18 57 1 38 28 55 86 47 161 -8 74 -43 184 -79 244 l-25 41 40 20 c21 10 39 23 39 28 0 14 -12 10 -42 -12z m-31 -139 c6 -63 -9 -125 -33 -134 -9 -3 -28 3 -43 13 -28 20 -85 114 -79 130 2 5 32 25 68 43 76 40 79 38 87 -52z m-51 -187 c-3 -8 -6 -17 -6 -20 0 -3 -7 0 -15 7 -22 19 -19 39 6 33 12 -4 18 -11 15 -20z m115 17 c14 -8 19 -21 19 -54 0 -98 -45 -143 -96 -95 -42 40 -30 114 24 143 33 19 29 18 53 6z"/> <path d="M1426 1264 c-67 -35 -231 -94 -261 -94 -14 0 -25 -4 -25 -10 0 -14 18 -13 76 5 27 8 50 15 52 15 1 0 2 -13 2 -29 0 -73 67 -238 133 -328 47 -63 91 -88 135 -76 28 7 52 56 52 105 0 85 -70 297 -121 370 l-22 31 24 18 c34 26 13 23 -45 -7z m20 -65 c26 -70 14 -189 -20 -211 -43 -29 -119 60 -132 155 l-6 43 63 26 c35 15 68 26 73 24 5 -1 15 -18 22 -37z m77 -199 c5 -22 1 -27 -39 -44 -27 -11 -50 -29 -56 -42 -13 -27 -19 -29 -36 -12 -20 20 -15 48 9 48 32 0 55 16 79 56 24 37 33 36 43 -6z m37 -79 c16 -32 12 -122 -7 -143 -22 -24 -62 -23 -90 4 -33 31 -32 100 2 133 30 31 80 34 95 6z"/> <path d="M2696 2398 c10 -17 65 -90 77 -103 15 -16 -3 14 -41 68 -31 43 -54 65 -36 35z"/> <path d="M128 2113 c-20 -43 -38 -89 -42 -103 l-6 -25 12 25 c42 90 78 174 75 177 -2 2 -20 -32 -39 -74z"/> <path d="M2831 2189 c-1 -5 41 -102 77 -179 l12 -25 -6 25 c-7 27 -82 189 -83 179z"/> <path d="M86 990 c8 -33 76 -181 81 -177 3 3 -33 87 -75 177 l-12 25 6 -25z"/> <path d="M2879 927 c-41 -99 -44 -106 -30 -87 15 22 73 161 69 166 -3 2 -20 -33 -39 -79z"/> <path d="M635 949 c-18 -7 -18 -8 5 -8 14 -1 41 -11 60 -22 26 -16 31 -17 20 -5 -22 28 -63 44 -85 35z"/> <path d="M226 700 c15 -27 76 -110 81 -110 6 0 -5 18 -40 65 -36 48 -54 67 -41 45z"/> <path d="M2713 628 c-48 -64 -59 -83 -46 -75 11 7 96 127 90 127 -3 0 -22 -24 -44 -52z"/> <path d="M435 440 c49 -49 92 -90 95 -90 2 0 -36 41 -85 90 -49 50 -92 90 -95 90 -2 0 36 -40 85 -90z"/> <path d="M2555 438 l-90 -93 93 90 c85 83 97 95 89 95 -1 0 -43 -42 -92 -92z"/> <path d="M2351 270 c-89 -66 -80 -68 12 -2 42 30 54 42 44 42 -2 0 -27 -18 -56 -40z"/> <path d="M840 151 c22 -15 161 -73 166 -69 2 3 -33 20 -79 39 -99 41 -106 44 -87 30z"/> <path d="M2115 139 c-22 -10 -60 -28 -85 -39 -25 -11 -34 -17 -20 -14 31 8 169 72 155 73 -5 0 -28 -9 -50 -20z"/> </g> </svg> 